<!DOCTYPE svg PUBLIC "-//W3C//DTD SVG 1.1//EN" "http://www.w3.org/Graphics/SVG/1.1/DTD/svg11.dtd">
<!-- Uploaded to: SVG Repo, www.svgrepo.com, Transformed by: SVG Repo Mixer Tools -->
<svg width="64px" height="64px" viewBox="-102.4 -102.4 1228.80 1228.80" fill="#e0e1dd" class="icon" version="1.1" xmlns="http://www.w3.org/2000/svg" stroke="#e0e1dd" stroke-width="0.01024" transform="rotate(-45)matrix(1, 0, 0, 1, 0, 0)">
<g id="SVGRepo_bgCarrier" stroke-width="0"/>
<g id="SVGRepo_tracerCarrier" stroke-linecap="round" stroke-linejoin="round" stroke="#CCCCCC" stroke-width="26.624000000000002"/>
<g id="SVGRepo_iconCarrier">
<path d="M344.854 687.167c26.725 56.8 66.665 111.099 118.91 161.654-109.515-16.445-200.574-83.285-250.026-175.73l131.114 14.076zM461.776 177.924c-106.691 16.718-195.535 81.185-245.233 170.432l128.342-12.64c26.395-55.654 65.729-108.624 116.89-157.793zM502.016 337.406l1.78-163.191h-0.362c-57.402 50.103-101.083 104.341-130.194 161.745l128.774 1.45zM224.829 388.081l-23.709-0.211-23.439-0.304-1.84 169.497-94.898-170.523-52.909-0.575-2.593 241.198 23.589 0.331 23.468 0.211 1.871-173.871 97.645 174.957 50.256 0.575 2.564-241.289zM450.373 433.36l0.211-21.506 0.271-21.357-177.611-1.9-2.593 241.289 183.132 1.93 0.241-21.446 0.211-21.387-132.697-1.418 0.663-62.954 117.977 1.266 0.211-20.694 0.211-20.814-117.977-1.238 0.575-51.161 127.175 1.387zM691.15 568.256l-33.060-175.501-53.664-0.635-36.349 176.255-38.43-177.009-52.397-0.603 64.553 242.012 23.922 0.241 23.981 0.304 39.907-189.616 36.711 190.401 24.071 0.331 23.889 0.241 69.742-240.566-50.949-0.544-41.929 174.687zM529.708 174.514h-0.362l-1.748 163.162 128.866 1.359c-27.932-58.038-70.404-113.18-126.754-164.521zM804.932 340.603c-53.633-89.519-145.152-151.602-251.828-164.202 68.335 52.922 106.493 106.707 131.741 162.933l120.086 1.266zM554.925 849.786c109.455-14.028 201.386-78.448 252.927-168.876l-130.547 9.845c-27.963 56.197-69.108 109.589-122.378 159.030zM648.738 690.455l-124.914-1.359-1.69 155.833c54.961-47.872 97.462-99.846 126.602-154.475zM981.396 521.109c-11.763-10.407-35.052-19.757-70.074-27.873-24.132-5.791-39.907-10.528-47.267-14.629-7.513-3.953-11.283-9.593-11.191-16.861 0.061-9.923 3.771-17.979 11.101-23.5 7.209-5.34 17.283-8.084 30.044-7.904 14.781 0.121 26.725 3.682 35.867 10.407 9.079 6.788 13.998 15.867 14.721 27.391l49.077 0.603c-1.569-24.282-10.769-43.469-27.6-57.887-16.741-14.419-38.703-21.748-65.729-22.020-28.837-0.331-51.852 6.335-68.956 19.728-17.073 13.546-25.73 32.246-25.973 55.535-0.211 20.905 6.004 36.349 18.642 46.393 12.819 9.984 38.338 19.517 76.469 28.415 20.753 4.827 34.238 9.562 40.572 13.786 6.395 4.346 9.593 10.979 9.502 20.151-0.090 9.199-4.705 16.259-13.786 21.387-9.109 5.068-21.628 7.54-37.766 7.359-15.596-0.181-27.813-3.71-36.439-10.738-8.746-6.91-13.212-16.711-13.634-29.652l-48.534-0.512c0.875 26.063 9.895 46.213 26.908 60.511 17.043 14.419 40.844 21.689 71.278 21.989 30.495 0.304 54.598-5.942 72.578-19.154 18.038-13.151 27.088-30.979 27.328-53.664 0.362-22.503-5.429-38.974-17.134-49.26zM496.586 844.508l1.69-155.651-124.914-1.359c28.053 55.201 69.348 108.050 123.223 157.009z"/>
</g>
</svg>